<?xml version="1.0" standalone="no"?>
<!DOCTYPE svg PUBLIC "-//W3C//DTD SVG 20010904//EN"
 "http://www.w3.org/TR/2001/REC-SVG-20010904/DTD/svg10.dtd">
<svg version="1.0" xmlns="http://www.w3.org/2000/svg"
 width="500.000000pt" height="500.000000pt" viewBox="0 0 500.000000 500.000000"
 preserveAspectRatio="xMidYMid meet">
<metadata>
Created by potrace 1.11, written by Peter Selinger 2001-2013
</metadata>
<g transform="translate(0.000000,500.000000) scale(0.100000,-0.100000)"
fill="#000000" stroke="none">
<path d="M2486 3699 c-90 -15 -160 -47 -234 -107 -31 -26 -83 -67 -116 -91
-32 -24 -61 -52 -63 -62 -3 -10 -14 -21 -24 -24 -22 -7 -80 -75 -73 -86 2 -4
-1 -11 -7 -15 -8 -4 -9 -3 -5 4 4 7 2 12 -3 12 -6 0 -11 -3 -11 -7 0 -5 -15
-24 -33 -43 -67 -74 -117 -143 -117 -163 0 -11 -21 -47 -46 -79 -25 -32 -43
-58 -40 -58 3 0 -11 -34 -30 -76 -19 -41 -34 -87 -34 -101 0 -22 -15 -58 -57
-138 -21 -39 -56 -168 -57 -209 -5 -157 -6 -167 -17 -160 -7 4 -10 -8 -9 -37
2 -24 2 -57 0 -74 -2 -30 -2 -30 -10 -5 -15 46 -11 -60 5 -124 8 -33 12 -63
10 -67 -4 -6 6 -45 22 -89 4 -8 6 -18 5 -22 -4 -17 19 -59 28 -53 5 3 10 -2
10 -12 0 -10 11 -35 25 -55 26 -39 31 -53 15 -43 -5 3 13 -27 41 -67 27 -40
57 -77 67 -82 9 -5 25 -20 35 -33 10 -13 23 -20 29 -17 7 4 8 2 4 -4 -6 -10
26 -52 39 -52 2 0 33 -18 67 -41 35 -23 55 -38 46 -35 -12 3 -18 0 -18 -9 0
-8 5 -15 11 -15 8 0 8 -4 1 -13 -7 -8 -6 -18 4 -31 7 -10 11 -23 8 -27 -3 -5
2 -9 10 -9 11 0 16 -9 16 -27 0 -14 3 -24 6 -20 5 5 44 -28 44 -37 0 -8 47
-56 54 -56 8 0 61 -37 90 -63 20 -17 21 -17 33 -1 12 17 13 17 13 1 0 -10 8
-17 19 -17 11 0 22 -4 25 -8 3 -5 18 -8 33 -6 61 6 159 22 174 29 10 3 20 1
24 -5 6 -9 9 -9 15 0 5 8 12 7 24 -5 15 -15 16 -15 16 0 0 11 5 15 15 11 9 -3
15 0 15 10 0 11 6 13 20 9 12 -4 31 0 45 9 13 9 31 16 40 16 8 0 15 6 15 14 0
15 31 28 68 29 12 1 22 7 22 15 0 8 6 12 15 8 8 -3 19 2 24 11 8 15 11 15 28
3 10 -8 7 -2 -7 14 l-25 29 24 -13 c21 -11 23 -10 18 3 -4 11 -2 14 8 11 7 -3
16 3 20 15 3 12 11 21 17 21 6 0 8 9 5 20 -4 16 4 24 38 39 72 32 217 145 271
213 117 144 183 281 213 443 12 66 27 143 33 171 14 66 4 264 -15 324 -8 25
-19 81 -25 125 -6 44 -23 107 -37 140 -15 33 -33 74 -40 90 -36 80 -75 174
-75 180 0 3 -15 38 -34 78 -18 40 -38 87 -44 106 -21 65 -107 202 -156 249
-27 26 -66 63 -85 83 -20 19 -58 46 -86 59 -27 13 -84 43 -126 67 -71 40 -82
43 -145 42 -38 -1 -91 -5 -118 -10z m192 -12 c7 0 10 -7 7 -16 -7 -24 3 -33
78 -68 69 -34 93 -40 82 -23 -3 6 -1 10 5 10 6 0 13 -6 16 -14 3 -8 13 -12 22
-9 15 4 15 3 2 -6 -13 -10 -12 -14 8 -30 12 -11 21 -25 20 -32 -2 -7 38 -40
88 -73 59 -40 89 -66 86 -75 -3 -8 1 -19 9 -25 35 -29 63 -69 65 -94 1 -15 5
-35 9 -44 4 -11 3 -18 -4 -18 -6 0 -11 -5 -11 -11 0 -6 7 -9 14 -6 17 7 47
-36 71 -103 19 -53 24 -119 10 -123 -5 -2 -3 -11 6 -20 9 -9 19 -31 23 -49 5
-26 13 -36 38 -46 31 -12 31 -12 12 -34 -10 -12 -14 -18 -7 -15 6 4 24 -9 42
-30 31 -37 31 -38 9 -43 -28 -7 -36 -30 -9 -30 24 0 40 -25 34 -51 -3 -11 0
-19 7 -19 10 0 10 -3 1 -14 -9 -11 -9 -15 1 -19 7 -3 3 -6 -9 -6 -13 -1 -23
-5 -23 -11 0 -5 6 -7 14 -4 8 3 19 -3 24 -13 13 -23 10 -73 -3 -73 -6 0 -5 -3
1 -8 30 -20 49 -122 23 -122 -6 0 -8 -7 -5 -16 17 -44 18 -64 3 -59 -8 4 -17
-1 -20 -9 -4 -10 -1 -16 8 -16 7 0 17 -5 20 -11 4 -6 0 -9 -11 -7 -11 2 -20
-4 -22 -16 -3 -14 0 -17 12 -13 12 5 16 0 16 -18 0 -19 -5 -25 -22 -25 -21 -1
-22 -2 -5 -14 21 -16 22 -27 2 -20 -8 4 -15 1 -15 -5 0 -6 5 -11 11 -11 7 0 9
-12 5 -32 -3 -18 -7 -42 -9 -53 -2 -11 -9 -31 -16 -44 -18 -33 -30 -78 -24
-85 4 -3 13 -1 22 6 9 6 4 0 -11 -15 -23 -23 -91 -147 -92 -170 -1 -4 -6 -11
-11 -15 -6 -4 -21 -22 -34 -40 -14 -21 -29 -31 -38 -28 -8 3 -12 2 -9 -2 3 -5
-11 -17 -31 -26 -35 -17 -36 -17 -22 1 13 17 12 17 -8 0 -13 -12 -19 -25 -16
-35 5 -11 2 -14 -10 -9 -9 3 -19 2 -22 -3 -4 -6 -1 -10 4 -10 6 0 11 -4 11
-10 0 -5 -7 -10 -16 -10 -8 0 -13 -4 -9 -10 7 -12 -52 -43 -67 -34 -7 4 -8 3
-4 -4 9 -16 -25 -31 -77 -35 -24 -2 -48 -6 -53 -9 -5 -3 -31 -9 -59 -12 -27
-3 -41 -3 -30 0 11 3 25 11 30 16 9 10 -19 8 -65 -5 -8 -2 -12 -2 -7 0 4 3 7
9 7 14 0 13 -28 11 -32 -2 -2 -6 -25 -13 -51 -16 -26 -3 -47 -10 -47 -14 0 -5
-20 -9 -45 -9 -25 0 -45 4 -45 10 0 11 -49 8 -68 -4 -7 -4 -19 0 -28 9 -9 9
-23 14 -31 10 -10 -3 -13 -1 -10 9 4 11 -2 14 -24 14 -23 -1 -27 -4 -18 -15 7
-7 9 -16 6 -19 -9 -9 -27 5 -27 21 0 14 -53 31 -68 21 -5 -3 -21 2 -37 10 -16
8 -31 11 -34 7 -8 -11 -41 -13 -41 -2 0 5 5 9 12 9 6 0 8 3 5 6 -4 4 -14 1
-23 -6 -11 -10 -17 -11 -23 -2 -3 6 -33 23 -66 38 -33 15 -62 30 -65 33 -3 4
-18 15 -35 25 -39 25 -68 51 -121 106 -62 65 -154 178 -154 189 0 5 -4 11 -8
13 -4 2 -18 35 -31 73 -13 39 -33 88 -46 110 -18 31 -22 53 -20 99 2 36 8 62
16 67 10 6 11 11 3 17 -9 6 -34 64 -34 78 0 2 9 4 20 4 11 0 20 7 20 15 0 18
-12 19 -28 3 -9 -9 -12 -8 -12 8 0 11 5 25 10 30 6 6 12 30 14 54 4 43 24 70
53 70 7 0 13 7 13 15 0 9 -6 12 -15 9 -9 -4 -15 0 -15 10 0 9 -4 16 -10 16
-13 0 -13 27 0 32 6 2 15 32 21 68 7 36 15 67 19 70 4 3 15 27 24 54 24 70 34
86 51 80 17 -7 21 21 5 31 -15 9 -12 25 5 25 8 0 14 3 13 8 -5 16 34 111 52
127 11 10 20 24 20 32 0 7 4 13 10 13 5 0 28 28 51 63 23 34 51 72 62 85 11
12 17 22 13 22 -4 0 -1 6 6 13 7 8 22 12 33 10 14 -3 16 -2 7 4 -19 14 -3 43
25 43 13 0 22 4 19 9 -3 4 6 18 19 31 13 13 23 26 20 30 -8 14 84 117 138 154
31 22 57 43 57 47 0 4 14 12 30 18 18 6 30 6 30 0 0 -5 5 -9 11 -9 6 0 9 6 6
14 -4 9 9 20 36 31 23 10 51 22 63 27 33 15 125 27 169 21 22 -3 46 -5 53 -6z
m262 -143 c0 -2 -7 -4 -15 -4 -8 0 -15 4 -15 10 0 5 7 7 15 4 8 -4 15 -8 15
-10z m-1410 -1437 c0 -18 -2 -19 -10 -7 -13 20 -13 43 0 35 6 -3 10 -16 10
-28z"/>
<path d="M2430 3621 c-8 -5 -18 -7 -22 -5 -4 3 -8 0 -8 -5 0 -13 6 -14 48 -2
17 5 32 6 32 2 0 -12 93 -12 110 -1 11 8 2 10 -35 9 -27 -1 -63 1 -80 5 -16 4
-37 2 -45 -3z"/>
<path d="M2595 3590 c-3 -5 1 -10 9 -10 9 0 16 5 16 10 0 6 -4 10 -9 10 -6 0
-13 -4 -16 -10z"/>
<path d="M2295 3578 c-11 -6 -27 -18 -36 -27 -15 -16 -71 -59 -92 -73 -6 -4
-8 -10 -4 -14 4 -4 22 7 40 24 18 18 36 32 41 32 4 0 21 14 38 30 16 17 34 28
39 24 5 -3 9 0 9 5 0 14 -10 13 -35 -1z"/>
<path d="M2122 3425 c-7 -8 -9 -15 -4 -15 5 0 15 7 22 15 16 19 -1 19 -18 0z"/>
<path d="M3215 3040 c3 -5 8 -10 11 -10 2 0 4 5 4 10 0 6 -5 10 -11 10 -5 0
-7 -4 -4 -10z"/>
<path d="M2120 2668 c0 -6 -3 -8 -7 -5 -3 4 -14 -7 -24 -23 -11 -17 -23 -30
-28 -30 -5 0 -12 -12 -15 -26 -4 -15 -18 -41 -32 -59 -27 -36 -31 -63 -9 -71
8 -4 12 -11 9 -16 -4 -6 -10 -5 -15 3 -4 7 -11 10 -15 6 -4 -4 -2 -13 4 -19
15 -15 16 -38 2 -38 -5 0 -10 8 -10 18 -1 38 -43 -50 -43 -91 -4 -204 45 -328
180 -458 32 -31 74 -64 93 -74 19 -10 41 -27 49 -37 7 -11 20 -17 27 -14 8 3
17 -1 21 -9 4 -11 9 -13 18 -5 9 7 16 6 25 -5 8 -9 25 -13 50 -11 26 3 40 0
44 -10 3 -7 12 -11 20 -8 8 3 17 1 21 -5 3 -6 11 -11 16 -11 6 0 7 5 4 10 -7
11 18 14 29 3 13 -13 56 -14 54 -1 -4 17 129 32 159 19 17 -8 21 -7 17 3 -4
10 5 16 27 21 63 14 209 115 209 145 0 4 12 23 27 40 14 18 27 39 28 49 1 9 7
26 14 39 7 13 11 31 9 40 -3 13 -8 10 -22 -13 -18 -31 -17 -28 14 65 20 61 32
153 19 144 -5 -3 -9 -15 -9 -26 0 -38 -33 -140 -47 -145 -7 -3 -13 -15 -13
-27 0 -34 -10 -37 -35 -11 -12 14 -25 22 -28 18 -4 -3 -7 1 -7 10 0 8 5 17 11
19 6 2 1 12 -11 23 l-22 20 3 -40 c3 -30 0 -40 -12 -43 -12 -2 -15 5 -13 33 2
25 0 34 -8 29 -7 -5 -9 -2 -5 8 3 9 -5 30 -19 49 -13 18 -24 28 -24 23 0 -6 5
-15 12 -22 9 -9 9 -12 0 -12 -7 0 -15 6 -18 14 -3 9 -12 12 -22 9 -11 -5 -14
-2 -9 10 8 21 -6 22 -23 2 -18 -22 -27 -18 -27 10 0 29 -13 47 -20 28 -3 -7
-14 -13 -24 -13 -11 0 -17 5 -14 10 3 6 -4 10 -16 10 -17 0 -20 -4 -15 -22 16
-53 16 -61 0 -30 -16 31 -34 43 -34 22 0 -12 -75 24 -86 41 -5 8 -9 8 -14 -2
-15 -23 -55 14 -58 52 -2 31 -32 79 -32 52 0 -6 3 -13 8 -16 4 -2 2 -3 -4 -1
-6 1 -17 -3 -24 -9 -7 -7 -3 4 10 23 13 19 29 38 34 42 6 4 3 10 -8 14 -11 4
-21 2 -26 -7 -7 -11 -10 -10 -15 3 -4 10 -13 14 -22 11 -13 -5 -15 -2 -11 15
6 23 -6 30 -17 11 -4 -6 -20 -7 -38 -3 l-32 6 26 -24 c15 -14 35 -28 45 -33
14 -5 15 -9 6 -12 -8 -3 -27 4 -43 16 -15 11 -33 21 -39 21 -5 0 -10 9 -10 20
0 11 -5 20 -11 20 -5 0 -8 4 -4 10 3 5 13 6 23 3 16 -6 16 -6 0 10 -9 9 -26
17 -38 17 -18 0 -21 -5 -18 -24 3 -16 1 -23 -7 -20 -8 3 -18 -12 -26 -40 -16
-56 -30 -62 -16 -6 9 34 8 45 -11 84 -13 24 -28 46 -35 49 -9 3 -9 7 1 19 9
11 10 18 2 23 -5 3 -10 0 -10 -8 0 -21 -23 -27 -43 -12 -23 17 -21 25 5 22 18
-2 22 4 24 28 l3 30 -40 -44 c-23 -26 -39 -37 -39 -28 0 19 48 71 73 80 11 4
17 1 17 -7 0 -9 7 -12 20 -9 20 5 28 23 10 23 -5 0 -10 7 -10 16 0 13 -3 14
-13 5 -16 -13 -28 -5 -20 15 3 8 2 14 -1 14 -3 0 -6 -5 -6 -12z m19 -172 c-2
-2 -17 -6 -34 -10 -22 -5 -26 -4 -15 4 14 9 59 15 49 6z m-39 -45 c0 -5 -7
-14 -15 -21 -12 -10 -15 -10 -15 2 0 8 3 18 7 21 9 10 23 9 23 -2z m170 -76
c0 -5 -5 -3 -10 5 -5 8 -10 20 -10 25 0 6 5 3 10 -5 5 -8 10 -19 10 -25z
m-297 -25 c-3 -11 -7 -20 -9 -20 -2 0 -4 9 -4 20 0 11 4 20 9 20 5 0 7 -9 4
-20z m1060 -375 c-3 -9 -8 -14 -10 -11 -3 3 -2 9 2 15 9 16 15 13 8 -4z"/>
<path d="M2153 2587 c-3 -5 0 -14 6 -20 6 -6 11 -20 11 -31 0 -28 38 -89 50
-81 12 7 2 57 -13 66 -5 4 -6 12 -3 18 4 6 4 11 -1 10 -24 -4 -25 3 -4 20 l24
18 -32 5 c-18 3 -34 1 -38 -5z"/>
<path d="M2258 2509 c-2 -15 0 -26 6 -26 6 0 19 -4 29 -8 11 -5 17 -3 17 6 0
7 -3 10 -6 6 -8 -7 -29 12 -36 33 -3 10 -6 6 -10 -11z"/>
<path d="M3092 2300 c0 -14 2 -19 5 -12 2 6 2 18 0 25 -3 6 -5 1 -5 -13z"/>
<path d="M2759 2277 c16 -16 13 -27 -4 -21 -8 4 -15 2 -15 -4 0 -17 23 -19 42
-3 9 8 14 19 11 24 -3 6 -1 7 5 3 16 -10 15 -27 -3 -40 -13 -9 -11 -11 9 -11
22 0 24 3 19 25 -8 33 -9 34 -45 36 -21 1 -27 -1 -19 -9z"/>
<path d="M2515 2270 c-3 -5 -1 -10 4 -10 6 0 11 5 11 10 0 6 -2 10 -4 10 -3 0
-8 -4 -11 -10z"/>
<path d="M3251 1694 c0 -11 3 -14 6 -6 3 7 2 16 -1 19 -3 4 -6 -2 -5 -13z"/>
<path d="M2645 1680 c3 -5 11 -10 16 -10 6 0 7 5 4 10 -3 6 -11 10 -16 10 -6
0 -7 -4 -4 -10z"/>
<path d="M2970 1439 c0 -5 5 -7 10 -4 6 3 10 8 10 11 0 2 -4 4 -10 4 -5 0 -10
-5 -10 -11z"/>
<path d="M1680 2950 c-6 -11 -8 -20 -6 -20 3 0 10 9 16 20 6 11 8 20 6 20 -3
0 -10 -9 -16 -20z"/>
<path d="M1619 2819 c-9 -17 -8 -20 2 -14 9 6 10 3 5 -11 -5 -10 -10 -28 -13
-39 -4 -20 -4 -20 11 -1 9 11 15 34 13 53 -2 39 -3 39 -18 12z"/>
<path d="M1572 2691 c-7 -19 -10 -36 -8 -38 8 -8 27 38 24 55 -3 11 -8 5 -16
-17z"/>
<path d="M1498 2360 c-4 -14 -8 -38 -8 -55 1 -25 2 -27 11 -12 6 9 9 34 7 55
-3 33 -4 35 -10 12z"/>
<path d="M2950 1322 c0 -6 -8 -9 -17 -6 -15 5 -16 4 -3 -5 16 -11 40 3 27 16
-4 3 -7 1 -7 -5z"/>
</g>
</svg>
